<?xml version="1.0" standalone="no"?>
<!DOCTYPE svg PUBLIC "-//W3C//DTD SVG 20010904//EN"
 "http://www.w3.org/TR/2001/REC-SVG-20010904/DTD/svg10.dtd">
<svg version="1.0" xmlns="http://www.w3.org/2000/svg"
 width="42.000000pt" height="42.000000pt" viewBox="0 0 42.000000 42.000000"
 preserveAspectRatio="xMidYMid meet">

<g transform="translate(0.000000,42.000000) scale(0.100000,-0.100000)"
fill="#000000" stroke="none">
<path d="M125 371 c-6 -5 -21 -11 -35 -13 -22 -3 -25 -8 -28 -50 -2 -29 1 -48
7 -48 6 0 11 7 11 15 0 13 22 15 140 15 l140 0 0 -105 0 -105 -35 0 c-30 0
-38 6 -60 41 -16 24 -41 47 -63 57 -27 11 -32 17 -19 20 30 6 18 22 -18 22
-19 0 -35 -4 -35 -10 0 -5 7 -10 15 -10 8 0 15 -4 15 -10 0 -5 -8 -10 -18 -10
-10 0 -28 -7 -40 -16 -21 -14 -22 -14 -22 10 0 14 -4 26 -10 26 -5 0 -10 -22
-10 -48 0 -26 -4 -52 -10 -58 -6 -6 -5 -17 6 -32 14 -20 23 -22 115 -22 59 0
99 4 99 10 0 6 20 10 44 10 24 0 48 6 54 13 15 18 16 255 1 273 -6 8 -22 14
-35 14 -13 0 -24 5 -24 10 0 13 -37 13 -45 0 -4 -6 -13 -5 -25 3 -16 9 -24 9
-40 0 -12 -8 -21 -9 -25 -3 -8 13 -38 13 -50 1z m35 -21 c0 -5 -4 -10 -10 -10
-5 0 -10 5 -10 10 0 6 5 10 10 10 6 0 10 -4 10 -10z m70 0 c0 -5 -4 -10 -10
-10 -5 0 -10 5 -10 10 0 6 5 10 10 10 6 0 10 -4 10 -10z m70 0 c0 -5 -4 -10
-10 -10 -5 0 -10 5 -10 10 0 6 5 10 10 10 6 0 10 -4 10 -10z m-175 -20 c9 -14
42 -12 48 3 4 10 7 10 18 0 7 -7 21 -13 30 -13 10 0 19 6 22 13 4 10 7 10 18
0 16 -15 49 -17 49 -3 0 6 11 10 25 10 16 0 25 -6 25 -15 0 -13 -22 -15 -140
-15 -118 0 -140 2 -140 15 0 17 35 21 45 5z m108 -191 c9 -12 17 -25 17 -30 0
-5 -38 -9 -85 -9 -86 0 -95 4 -72 32 34 43 107 47 140 7z m27 -69 c0 -6 -38
-10 -95 -10 -57 0 -95 4 -95 10 0 6 38 10 95 10 57 0 95 -4 95 -10z"/>
<path d="M315 260 c-3 -5 -13 -6 -23 -3 -16 5 -16 5 0 -12 14 -15 20 -16 32
-5 9 7 16 16 16 21 0 12 -17 11 -25 -1z"/>
<path d="M325 210 c-4 -6 -15 -8 -26 -5 -22 7 -25 -7 -6 -24 11 -8 18 -6 32 9
10 11 16 23 13 26 -3 3 -9 0 -13 -6z"/>
</g>
</svg>
