<?xml version="1.0" standalone="no"?>
<!DOCTYPE svg PUBLIC "-//W3C//DTD SVG 20010904//EN"
 "http://www.w3.org/TR/2001/REC-SVG-20010904/DTD/svg10.dtd">
<svg version="1.0" xmlns="http://www.w3.org/2000/svg"
 width="76.000000pt" height="76.000000pt" viewBox="0 0 76.000000 76.000000"
 preserveAspectRatio="xMidYMid meet">

<g transform="translate(0.000000,76.000000) scale(0.100000,-0.100000)"
fill="#000000" stroke="none">
<path d="M324 583 c0 -10 -6 -18 -14 -17 -11 1 -14 -8 -13 -30 1 -17 2 -44 3
-61 1 -16 4 -24 7 -17 2 6 11 12 18 12 18 0 29 69 16 103 -12 31 -19 35 -17
10z"/>
<path d="M433 555 c-3 -9 -3 -18 -1 -21 3 -3 8 4 11 16 6 23 -1 27 -10 5z"/>
<path d="M410 473 c8 -3 19 -11 23 -17 6 -7 7 -6 4 4 -2 8 -12 16 -23 17 -13
2 -15 1 -4 -4z"/>
<path d="M320 436 c0 -2 7 -9 15 -16 9 -7 15 -8 15 -2 0 5 -7 12 -15 16 -8 3
-15 4 -15 2z"/>
<path d="M510 425 c-6 -8 -10 -20 -7 -27 4 -8 6 -7 6 4 1 9 9 22 19 27 9 6 12
11 6 11 -6 0 -17 -7 -24 -15z"/>
<path d="M332 360 c-9 -15 -9 -21 1 -26 6 -4 9 -4 5 1 -4 4 -3 14 4 22 6 7 9
15 7 18 -3 2 -10 -4 -17 -15z"/>
<path d="M489 323 c-13 -16 -12 -17 4 -4 9 7 17 15 17 17 0 8 -8 3 -21 -13z"/>
<path d="M416 315 c-3 -8 -1 -15 4 -15 6 0 10 7 10 15 0 8 -2 15 -4 15 -2 0
-6 -7 -10 -15z"/>
<path d="M341 298 c-1 -18 -7 -28 -16 -28 -13 0 -14 4 -4 21 9 18 5 17 -25 -7
-20 -16 -36 -33 -36 -38 0 -5 9 -1 19 8 22 20 41 14 41 -12 0 -11 6 -6 15 12
9 17 14 39 12 50 -3 16 -5 14 -6 -6z"/>
<path d="M445 270 c10 -11 20 -20 23 -20 3 0 -3 9 -13 20 -10 11 -20 20 -23
20 -3 0 3 -9 13 -20z"/>
<path d="M135 152 c-65 -2 -94 -7 -107 -19 -22 -20 -23 -51 -2 -81 15 -22 15
-22 353 -22 315 0 339 1 354 18 22 24 22 65 -1 85 -15 14 -49 16 -222 17 -113
1 -213 -2 -223 -6 -10 -3 -28 -3 -40 2 -12 5 -62 8 -112 6z m-11 -47 c7 -18
-3 -45 -16 -45 -5 0 -6 5 -3 10 3 6 -1 10 -9 10 -9 0 -16 5 -16 10 0 7 6 7 20
0 22 -12 27 -1 8 18 -8 8 -8 12 -1 12 6 0 13 -7 17 -15z m73 -22 c-3 -10 -5
-4 -5 12 0 17 2 24 5 18 2 -7 2 -21 0 -30z m-21 8 c0 -11 -4 -17 -8 -15 -10 7
-10 34 0 34 4 0 8 -9 8 -19z m74 -6 c0 -8 -9 -13 -20 -12 -11 1 -20 8 -20 15
0 12 3 12 17 1 15 -12 16 -12 10 4 -4 11 -3 16 3 12 6 -3 10 -12 10 -20z m17
-7 c-3 -7 -5 -2 -5 12 0 14 2 19 5 13 2 -7 2 -19 0 -25z m63 6 c0 -8 -4 -14
-9 -14 -6 0 -9 9 -8 19 1 22 17 18 17 -5z m37 6 c-1 -12 -5 -16 -10 -11 -5 5
-6 14 -3 20 11 16 15 13 13 -9z m26 3 c-6 -17 -5 -17 14 0 21 18 33 14 32 -12
0 -12 -3 -11 -9 4 -6 14 -9 15 -9 5 -1 -19 -41 -24 -41 -6 0 12 9 26 16 26 2
0 1 -8 -3 -17z m100 -16 c-4 -6 -9 -3 -14 9 -7 19 -8 19 -8 0 -1 -11 -4 -17
-7 -13 -4 3 -4 14 0 23 5 13 9 14 21 4 8 -7 12 -17 8 -23z m27 7 c0 -22 -16
-17 -17 6 -1 11 2 18 8 15 5 -4 9 -13 9 -21z m60 1 c0 -7 -10 -12 -23 -11 -13
0 -24 6 -24 13 0 7 4 10 8 7 4 -2 10 0 14 6 8 13 25 3 25 -15z m17 -7 c-3 -7
-5 -2 -5 12 0 14 2 19 5 13 2 -7 2 -19 0 -25z m20 0 c-3 -7 -5 -2 -5 12 0 14
2 19 5 13 2 -7 2 -19 0 -25z m-320 7 c0 -8 -4 -15 -9 -15 -4 0 -8 7 -8 15 0 8
4 15 8 15 5 0 9 -7 9 -15z m353 0 c0 -8 -4 -15 -8 -15 -5 0 -9 7 -9 15 0 8 4
15 9 15 4 0 8 -7 8 -15z m30 -6 c0 -5 -4 -9 -8 -9 -5 0 -9 7 -9 15 0 8 4 12 9
9 4 -3 8 -9 8 -15z m-593 -15 c-3 -3 -12 -4 -19 -1 -8 3 -5 6 6 6 11 1 17 -2
13 -5z"/>
</g>
</svg>
