<?xml version="1.0" standalone="no"?>
<!DOCTYPE svg PUBLIC "-//W3C//DTD SVG 20010904//EN"
 "http://www.w3.org/TR/2001/REC-SVG-20010904/DTD/svg10.dtd">
<svg version="1.0" xmlns="http://www.w3.org/2000/svg"
 width="35.000000pt" height="35.000000pt" viewBox="0 0 35.000000 35.000000"
 preserveAspectRatio="xMidYMid meet">

<g transform="translate(0.000000,35.000000) scale(0.100000,-0.100000)"
fill="#000000" stroke="none">
<path d="M125 325 c-113 -40 -145 -177 -61 -261 139 -139 357 55 235 210 -41
52 -112 73 -174 51z m92 -25 c24 0 73 -52 83 -88 27 -100 -61 -189 -160 -162
-123 33 -126 212 -4 250 16 5 38 7 49 5 11 -3 25 -5 32 -5z"/>
<path d="M166 273 c-3 -3 -6 -29 -6 -58 0 -49 1 -52 36 -69 49 -23 71 -5 26
21 -28 16 -32 23 -32 60 0 40 -10 60 -24 46z"/>
</g>
</svg>
