<?xml version="1.0" standalone="no"?>
<!DOCTYPE svg PUBLIC "-//W3C//DTD SVG 20010904//EN"
 "http://www.w3.org/TR/2001/REC-SVG-20010904/DTD/svg10.dtd">
<svg version="1.0" xmlns="http://www.w3.org/2000/svg"
 width="44.000000pt" height="44.000000pt" viewBox="0 0 44.000000 44.000000"
 preserveAspectRatio="xMidYMid meet">

<g transform="translate(0.000000,44.000000) scale(0.100000,-0.100000)"
fill="#000000" stroke="none">
<path d="M103 383 c-39 -8 -73 -52 -73 -96 0 -37 7 -47 95 -136 l95 -96 95 96
c88 89 95 99 95 136 0 84 -91 125 -162 73 -28 -20 -28 -20 -55 -1 -32 22 -59
30 -90 24z m82 -44 l35 -31 35 31 c43 37 74 39 111 7 21 -18 28 -32 28 -60 0
-33 -9 -46 -87 -124 l-87 -87 -87 87 c-78 78 -87 91 -87 124 0 28 7 42 28 60
37 32 68 30 111 -7z"/>
</g>
</svg>
