<?xml version="1.0" standalone="no"?>
<!DOCTYPE svg PUBLIC "-//W3C//DTD SVG 20010904//EN"
 "http://www.w3.org/TR/2001/REC-SVG-20010904/DTD/svg10.dtd">
<svg version="1.0" xmlns="http://www.w3.org/2000/svg"
 width="35.000000pt" height="35.000000pt" viewBox="0 0 35.000000 35.000000"
 preserveAspectRatio="xMidYMid meet">

<g transform="translate(0.000000,35.000000) scale(0.100000,-0.100000)"
fill="#000000" stroke="none">
<path d="M65 299 c-4 -6 14 -37 39 -70 40 -52 46 -65 46 -107 0 -35 5 -54 18
-65 10 -10 22 -17 25 -17 4 0 7 29 7 65 0 62 2 68 46 124 25 33 43 64 39 70
-4 7 -47 11 -110 11 -63 0 -106 -4 -110 -11z"/>
</g>
</svg>
