<?xml version="1.0" standalone="no"?>
<!DOCTYPE svg PUBLIC "-//W3C//DTD SVG 20010904//EN"
 "http://www.w3.org/TR/2001/REC-SVG-20010904/DTD/svg10.dtd">
<svg version="1.0" xmlns="http://www.w3.org/2000/svg"
 width="60.000000pt" height="60.000000pt" viewBox="0 0 60.000000 60.000000"
 preserveAspectRatio="xMidYMid meet">

<g transform="translate(0.000000,60.000000) scale(0.100000,-0.100000)"
fill="#000000" stroke="none">
<path d="M240 571 c-87 -27 -190 -133 -190 -196 0 -11 -7 -15 -22 -13 -33 5
-33 -22 1 -62 l30 -35 32 32 c21 21 30 37 25 48 -5 14 -9 15 -21 5 -37 -31 -1
61 44 112 95 109 287 102 370 -12 41 -57 54 -102 49 -170 -9 -121 -101 -210
-223 -218 -80 -5 -122 9 -180 60 -34 30 -49 38 -58 29 -14 -14 42 -75 98 -103
56 -29 149 -35 216 -13 106 36 189 151 189 265 0 153 -132 282 -284 279 -28 0
-62 -4 -76 -8z"/>
<path d="M297 474 c-4 -4 -7 -49 -7 -100 l0 -93 59 -45 c33 -25 67 -46 75 -46
31 0 15 27 -39 66 l-54 39 -3 89 c-3 82 -12 109 -31 90z"/>
</g>
</svg>
