<svg version="1.1" id="Layer_1" xmlns="http://www.w3.org/2000/svg" xmlns:xlink="http://www.w3.org/1999/xlink" x="0px" y="0px"
	 width="100%" viewBox="0 0 1024 1024" enable-background="new 0 0 1024 1024" xml:space="preserve">
<path fill="#000000" opacity="1.000000" stroke="none" 
	d="
M837.984375,531.299744 
	C811.953369,532.596375 786.570251,531.315735 761.634460,525.275818 
	C731.771912,518.042603 703.960510,506.640045 682.182617,483.852142 
	C675.432922,476.789459 670.327515,468.530304 666.999817,459.393890 
	C665.428894,455.080963 663.116516,454.013123 658.889038,454.134216 
	C649.066589,454.415558 639.227600,454.417786 629.401978,454.212372 
	C617.404419,453.961609 609.801270,443.684448 613.694641,433.327881 
	C616.159424,426.771484 621.762817,422.778473 629.090393,422.704956 
	C639.919250,422.596283 650.751160,422.578094 661.578979,422.725464 
	C664.852722,422.770020 666.858887,421.670044 668.179199,418.645996 
	C677.050232,398.328430 692.798096,384.663269 711.629211,374.024719 
	C712.910767,373.300720 714.474854,372.976501 715.169922,371.202240 
	C708.934204,360.928284 702.329956,350.735107 696.409729,340.159027 
	C681.075989,312.766083 668.530151,284.165253 660.290344,253.787720 
	C655.879028,237.524490 652.535095,221.021225 652.873901,204.126801 
	C653.664734,164.695297 666.128113,129.255142 691.515930,98.934219 
	C719.665588,65.314865 755.950867,45.663597 799.347046,40.010006 
	C831.885681,35.770920 863.083252,41.486610 892.324829,56.524727 
	C941.612244,81.871902 971.419434,122.062859 981.903076,176.340118 
	C987.246155,204.003540 983.972900,231.204010 976.090576,258.164673 
	C966.771057,290.041077 952.667542,319.696838 936.330017,348.411896 
	C931.981934,356.054199 927.253418,363.480072 922.433960,371.444153 
	C930.398560,376.087952 938.068115,380.928528 945.104675,386.752930 
	C960.586609,399.567871 971.213806,415.171295 973.412781,435.529663 
	C975.295288,452.958221 969.029846,467.845764 957.909119,480.928955 
	C939.484314,502.605133 915.026978,514.183350 888.456116,522.102905 
	C872.135803,526.967224 855.405334,529.742981 837.984375,531.299744 
M910.357666,328.959564 
	C913.837708,322.517090 917.492065,316.161804 920.766357,309.616394 
	C932.401184,286.358398 942.761963,262.614075 948.303101,237.024719 
	C954.842957,206.823318 952.455750,177.603653 939.807312,149.203598 
	C916.314697,96.454552 858.504211,64.263741 801.247253,72.236801 
	C779.380920,75.281700 759.353149,83.101410 741.412537,95.781494 
	C722.149231,109.396461 707.310974,126.996910 697.631897,148.615509 
	C687.724060,170.744888 682.928162,193.930847 686.026611,218.163834 
	C689.778992,247.510956 700.146667,274.889618 712.583252,301.515228 
	C720.839600,319.191528 730.700745,335.999146 741.459290,352.261444 
	C757.066650,375.853119 774.424927,397.846558 797.894165,414.352386 
	C812.930481,424.927368 823.425171,425.368530 838.787781,415.344543 
	C840.181152,414.435333 841.530029,413.450714 842.848389,412.434784 
	C871.783997,390.137634 892.250793,360.972321 910.357666,328.959564 
M929.414917,464.913300 
	C947.192444,447.403198 944.941162,428.823242 925.992615,412.691772 
	C920.646484,408.140381 914.496948,404.738464 908.679199,400.858368 
	C904.666260,398.182007 901.915466,398.170959 898.593262,402.199036 
	C886.148254,417.287781 872.326233,431.019043 855.862427,441.750244 
	C831.864868,457.392090 809.263184,459.443481 783.928650,443.202911 
	C766.349426,431.933807 751.482971,417.749268 738.319153,401.668854 
	C736.732361,399.730438 735.485657,397.290192 732.304810,399.027191 
	C720.557434,405.442230 708.998474,412.136108 701.380066,423.675262 
	C695.444763,432.665131 694.366638,442.144653 699.009155,452.122375 
	C703.015991,460.733948 709.548706,467.011475 717.239441,472.203186 
	C743.700867,490.066162 773.579895,497.369904 804.854797,499.608246 
	C822.638794,500.881104 840.456360,500.374634 858.087646,496.783630 
	C884.018799,491.502167 908.556030,483.225647 929.414917,464.913300 
z"/>
<path fill="#000000" opacity="1.000000" stroke="none" 
	d="
M332.788116,849.203918 
	C344.849915,860.603882 353.286896,873.813232 356.218536,889.920959 
	C359.728607,909.206848 353.099335,925.775024 340.683472,940.127991 
	C327.221863,955.689941 310.127075,966.212646 291.077362,973.601318 
	C260.108124,985.612976 228.017227,991.270935 194.781204,989.994385 
	C159.943146,988.656189 126.381111,981.923767 95.346039,965.366211 
	C79.260216,956.784363 65.182343,945.616394 55.763184,929.678223 
	C39.527046,902.204834 47.669449,871.846558 69.469879,850.673523 
	C76.805649,843.548828 85.096794,837.672546 93.993492,832.733154 
	C98.206635,830.394043 98.295197,828.193237 95.796799,824.471497 
	C81.935120,803.822327 70.377594,781.901489 60.496719,759.101013 
	C49.141850,732.899170 39.929276,706.003845 36.938389,677.439331 
	C34.167244,650.973511 38.696228,625.531677 48.599247,600.821228 
	C59.205643,574.355713 75.853691,552.539673 97.620239,534.461975 
	C121.843102,514.344177 149.868057,502.667328 180.942505,498.741486 
	C229.508606,492.605743 272.640533,505.853912 309.914948,537.347534 
	C341.244995,563.818848 358.710144,598.158020 365.477875,638.381470 
	C369.597534,662.866333 366.968048,686.770447 360.746094,710.482178 
	C351.719055,744.884216 336.938110,776.815002 318.866425,807.317261 
	C315.473419,813.044067 312.327576,818.903320 308.419006,824.332642 
	C304.697266,829.502502 304.876984,829.907043 310.388458,832.825867 
	C318.550995,837.148743 325.833710,842.645996 332.788116,849.203918 
M287.884064,796.459778 
	C303.479187,771.319763 316.425323,744.952148 325.461029,716.700500 
	C330.654633,700.461670 334.538818,683.985962 335.137054,666.923828 
	C336.060883,640.575256 329.354309,616.078613 315.563110,593.693665 
	C292.183899,555.746155 258.021637,533.817505 213.824524,529.567383 
	C175.515961,525.883545 141.478729,537.866089 112.807159,563.778625 
	C87.974709,586.221558 73.707100,614.447754 69.513283,647.526611 
	C66.594955,670.545044 70.804619,692.835022 78.025414,714.745850 
	C89.731079,750.265564 106.197639,783.425903 127.112175,814.329590 
	C141.352753,835.371704 157.756805,854.585815 177.878220,870.426697 
	C193.853012,883.003052 206.641937,883.733521 223.397385,872.141479 
	C229.833221,867.688904 235.857727,862.686768 241.414230,857.131409 
	C259.415222,839.134033 274.732269,819.085632 287.884064,796.459778 
M116.092407,856.898621 
	C106.013191,862.168579 96.124603,867.828918 88.893051,876.837219 
	C81.830231,885.635315 76.519554,895.286133 80.701302,907.141846 
	C85.032356,919.420837 94.353783,927.411926 105.056549,933.937439 
	C126.815697,947.204041 150.966965,953.573059 175.898849,956.432983 
	C205.547119,959.833923 235.099136,958.458862 263.820160,949.302856 
	C283.623108,942.989807 302.628021,935.183899 316.647095,918.710876 
	C326.243439,907.434692 327.469299,894.109863 319.070129,881.990234 
	C311.292053,870.766724 300.366180,863.225525 288.290527,857.176147 
	C285.352936,855.704590 284.022369,857.442444 282.523834,859.281677 
	C271.447754,872.874878 258.954926,884.916992 245.228912,895.918335 
	C219.319824,916.684326 187.446045,917.507141 160.943436,897.724243 
	C145.882828,886.482239 132.860596,873.263611 120.650558,859.122314 
	C119.601830,857.907715 118.861366,856.162903 116.092407,856.898621 
z"/>
<path fill="#000000" opacity="1.000000" stroke="none" 
	d="
M408.041626,616.529541 
	C412.151855,605.501526 420.188202,600.832214 429.193512,603.756714 
	C432.927002,604.969238 435.393188,607.643311 437.443237,610.666565 
	C445.779633,622.960327 456.175812,632.990601 468.811951,640.876831 
	C477.072510,646.032410 479.304291,655.494629 474.722900,662.932068 
	C470.023987,670.560303 459.557709,673.097900 451.461884,668.004883 
	C435.959106,658.252136 423.035248,645.633301 412.163849,630.940063 
	C409.145996,626.861267 407.452393,622.170105 408.041626,616.529541 
z"/>
<path fill="#000000" opacity="1.000000" stroke="none" 
	d="
M412.733459,586.288330 
	C400.770630,589.794495 391.482910,583.925781 389.836456,572.107239 
	C387.128021,552.665894 389.157318,533.700012 395.503662,515.130859 
	C397.738251,508.592590 402.547394,505.457092 408.903931,504.885223 
	C415.017578,504.335175 420.458801,506.278839 423.761719,512.024841 
	C425.717346,515.426941 426.620056,519.049255 425.715149,523.006958 
	C422.746613,535.989624 420.323792,549.037964 421.310974,562.463196 
	C421.432587,564.117126 421.495026,565.785522 421.768219,567.416504 
	C423.283691,576.464600 421.040009,581.365356 412.733459,586.288330 
z"/>
<path fill="#000000" opacity="1.000000" stroke="none" 
	d="
M455.489655,915.366333 
	C451.646942,919.577637 447.147095,921.297852 441.872955,921.288940 
	C426.216034,921.262451 410.559021,921.274475 394.902039,921.276672 
	C389.376892,921.277405 384.378754,919.899841 380.310577,915.907532 
	C373.014557,908.747314 375.092194,895.861877 384.309814,891.390259 
	C387.333679,889.923462 390.521088,888.926270 393.908020,888.915161 
	C409.898163,888.862915 425.892944,888.615967 441.877380,888.911072 
	C456.344757,889.178101 463.379486,902.772400 455.489655,915.366333 
z"/>
<path fill="#000000" opacity="1.000000" stroke="none" 
	d="
M524.000000,888.860107 
	C530.824951,888.859863 537.151672,888.764832 543.474548,888.879211 
	C553.995605,889.069519 561.526001,896.235962 561.327881,905.711731 
	C561.140564,914.669373 553.626099,921.290466 543.418884,921.318298 
	C527.606812,921.361511 511.794312,921.341736 495.982300,921.276062 
	C485.359528,921.231934 478.183411,914.718445 478.106415,905.204346 
	C478.034851,896.363525 486.064667,888.947815 496.036713,888.844238 
	C505.190094,888.749207 514.345459,888.846741 524.000000,888.860107 
z"/>
<path fill="#000000" opacity="1.000000" stroke="none" 
	d="
M589.411865,891.039185 
	C593.172607,889.329163 596.814697,888.866455 600.478149,888.855225 
	C615.468628,888.809326 630.461548,888.723083 645.449524,888.934143 
	C658.034241,889.111328 665.452637,897.964050 662.980103,909.392151 
	C661.526245,916.111694 656.343506,920.831665 648.042358,921.017639 
	C630.399353,921.412842 612.734924,921.323547 595.090027,920.938721 
	C587.912842,920.782227 582.530823,915.785706 580.930359,909.477966 
	C579.190674,902.621277 582.309448,895.613098 589.411865,891.039185 
z"/>
<path fill="#000000" opacity="1.000000" stroke="none" 
	d="
M776.929138,874.892395 
	C772.014404,866.397095 772.272034,861.048950 778.226013,854.091064 
	C787.321350,843.462097 793.949768,831.485413 798.525024,818.316711 
	C799.569641,815.310242 800.921509,812.488281 803.197937,810.170227 
	C808.784668,804.481201 815.853577,803.323486 822.727295,807.023987 
	C828.728943,810.255066 832.051392,817.326416 829.940491,824.562012 
	C824.473938,843.299561 815.436218,860.305115 802.637268,875.020264 
	C794.771423,884.063782 785.757019,883.701111 776.929138,874.892395 
z"/>
<path fill="#000000" opacity="1.000000" stroke="none" 
	d="
M749.348328,699.691345 
	C737.065674,693.419556 724.594482,688.996887 711.213074,687.233337 
	C702.581360,686.095703 697.226624,679.645630 697.686462,671.480774 
	C698.150513,663.240784 704.462036,657.011108 713.037292,656.691223 
	C721.450500,656.377319 729.557007,658.346680 737.559204,660.688782 
	C749.090332,664.063721 760.519226,667.768372 770.594666,674.557861 
	C779.856995,680.799561 780.737732,693.212036 772.412170,700.309448 
	C767.400879,704.581604 761.564819,704.995911 755.530334,702.684265 
	C753.516235,701.912842 751.625671,700.819031 749.348328,699.691345 
z"/>
<path fill="#000000" opacity="1.000000" stroke="none" 
	d="
M832.265137,774.842285 
	C828.442993,782.946655 822.699890,786.783997 815.953247,786.076965 
	C808.243103,785.268921 803.413818,780.638000 801.397705,771.954346 
	C798.181824,758.103271 793.530396,744.822144 786.096741,732.613708 
	C782.776978,727.161682 781.728943,721.493286 784.804077,715.567261 
	C790.391357,704.800232 804.615417,703.516235 811.567688,713.680847 
	C823.186035,730.667297 830.430115,749.496521 832.882080,770.029419 
	C833.053162,771.461731 832.541565,772.975525 832.265137,774.842285 
z"/>
<path fill="#000000" opacity="1.000000" stroke="none" 
	d="
M741.166260,915.392822 
	C727.541626,918.884399 714.221924,921.638550 700.449341,921.333008 
	C689.959839,921.100281 683.103577,914.930969 682.913757,905.468140 
	C682.738831,896.748291 689.261963,889.860962 699.272583,889.535950 
	C714.390808,889.045044 728.858276,886.161316 743.041931,880.904968 
	C752.396973,877.437988 760.646423,881.924744 763.667053,891.017822 
	C766.336121,899.052246 761.419495,908.223145 752.822510,911.270508 
	C749.064087,912.602783 745.315552,913.963135 741.166260,915.392822 
z"/>
<path fill="#000000" opacity="1.000000" stroke="none" 
	d="
M600.816223,683.272766 
	C595.346436,677.891418 594.062866,671.718994 596.898438,665.197205 
	C599.827698,658.460083 605.417053,655.504578 612.885925,655.581726 
	C629.500366,655.753357 646.117859,655.593506 662.733643,655.675171 
	C671.924927,655.720337 678.046753,661.434021 678.977539,670.557068 
	C679.705750,677.694519 674.113525,684.724670 666.074463,686.553406 
	C663.992249,687.027039 661.798584,687.182251 659.655273,687.188049 
	C644.355042,687.229309 629.054016,687.115234 613.754639,687.230530 
	C609.081970,687.265747 604.876343,686.264465 600.816223,683.272766 
z"/>
<path fill="#000000" opacity="1.000000" stroke="none" 
	d="
M457.267731,477.279938 
	C453.729004,480.815887 450.517242,484.184021 447.219391,487.465668 
	C440.243835,494.406921 431.516541,494.954742 424.932648,488.923676 
	C417.969086,482.544800 417.197876,473.635101 423.754669,466.213776 
	C436.588165,451.688141 451.714447,440.153137 470.037415,433.311646 
	C479.721680,429.695709 487.477203,432.864838 491.096802,441.463501 
	C494.500183,449.548401 490.483093,458.678925 481.437347,462.752289 
	C472.898834,466.597229 464.689789,470.919739 457.267731,477.279938 
z"/>
<path fill="#000000" opacity="1.000000" stroke="none" 
	d="
M517.037903,687.163696 
	C512.232849,687.062256 507.894318,687.511353 503.699707,685.889893 
	C496.863068,683.247253 492.097229,675.944946 493.199951,669.540955 
	C494.574097,661.560547 500.695160,655.796143 508.564484,655.714233 
	C525.714966,655.535706 542.868774,655.526428 560.020020,655.634949 
	C569.470032,655.694702 575.704102,661.967346 576.009644,671.245117 
	C576.286499,679.653381 569.298157,686.882690 560.026794,687.055420 
	C545.865723,687.319214 531.696594,687.148254 517.037903,687.163696 
z"/>
<path fill="#000000" opacity="1.000000" stroke="none" 
	d="
M545.000183,454.267822 
	C538.841187,454.275940 533.179016,454.399261 527.523682,454.255829 
	C517.776978,454.008667 510.736542,447.410400 510.724548,438.709167 
	C510.712372,429.876709 518.080872,422.807434 527.748596,422.734741 
	C544.225647,422.610901 560.704895,422.591980 577.181885,422.708496 
	C586.628235,422.775299 593.899963,429.781342 593.870850,438.384125 
	C593.839600,447.613525 586.903931,454.190765 576.957886,454.257507 
	C566.472412,454.327881 555.986084,454.266724 545.000183,454.267822 
z"/>
<path fill="#000000" opacity="1.000000" stroke="none" 
	d="
M881.900513,180.363571 
	C895.849060,219.201324 875.044250,260.109314 836.191528,270.203186 
	C792.593201,281.529999 753.765442,248.944550 751.452271,208.685059 
	C749.323853,171.641571 778.256287,137.354416 817.930847,137.040924 
	C845.637939,136.821991 866.272400,149.822525 879.165283,174.594849 
	C880.087097,176.366104 880.883118,178.202866 881.900513,180.363571 
M848.385315,185.171265 
	C839.494080,171.878220 821.830994,166.044617 807.039673,171.234695 
	C791.934875,176.534790 781.966675,194.687729 783.958923,208.276642 
	C786.509827,225.676071 800.252380,239.940567 817.965515,240.494720 
	C834.245972,241.004089 850.346741,228.516281 853.006104,213.310898 
	C854.709412,203.572006 853.508972,194.462280 848.385315,185.171265 
z"/>
<path fill="#000000" opacity="1.000000" stroke="none" 
	d="
M152.256851,617.278687 
	C178.791260,589.670471 219.613388,588.883850 245.498505,611.458557 
	C267.352325,630.517578 274.769928,654.977600 266.604614,682.684265 
	C258.320282,710.794861 238.256805,726.668518 209.243042,730.368835 
	C174.124481,734.847656 140.481445,709.521545 134.963791,674.779663 
	C131.516754,653.075378 137.549545,634.003540 152.256851,617.278687 
M166.349365,660.821228 
	C165.969772,667.266724 167.079056,673.453735 170.069855,679.171875 
	C177.701614,693.762939 192.551270,701.220337 208.307220,698.532654 
	C223.416290,695.955261 235.894928,683.164673 237.365067,667.084595 
	C239.792221,640.536804 217.227493,623.393555 194.742340,628.466919 
	C178.119644,632.217468 168.906616,643.203003 166.349365,660.821228 
z"/>
</svg>