<?xml version="1.0" standalone="no"?>
<!DOCTYPE svg PUBLIC "-//W3C//DTD SVG 20010904//EN"
 "http://www.w3.org/TR/2001/REC-SVG-20010904/DTD/svg10.dtd">
<svg version="1.0" xmlns="http://www.w3.org/2000/svg"
 width="36.000000pt" height="36.000000pt" viewBox="0 0 36.000000 36.000000"
 preserveAspectRatio="xMidYMid meet">

<g transform="translate(0.000000,36.000000) scale(0.100000,-0.100000)"
fill="#000000" stroke="none">
<path d="M170 350 c0 -6 -35 -10 -85 -10 l-85 0 0 -30 c0 -16 4 -30 10 -30 5
0 11 -45 12 -102 l3 -103 63 -3 63 -3 -22 -30 c-28 -39 -14 -52 17 -16 l24 28
0 -25 c0 -14 5 -26 10 -26 6 0 10 12 10 26 l0 25 24 -28 c31 -36 45 -23 17 16
l-22 30 63 3 63 3 3 103 c1 57 7 102 12 102 6 0 10 14 10 30 l0 30 -85 0 c-50
0 -85 4 -85 10 0 6 -4 10 -10 10 -5 0 -10 -4 -10 -10z m170 -40 c0 -6 -60 -10
-160 -10 -100 0 -160 4 -160 10 0 6 60 10 160 10 100 0 160 -4 160 -10z m-20
-120 l0 -90 -140 0 -140 0 0 90 0 90 140 0 140 0 0 -90z"/>
<path d="M75 241 c-7 -13 17 -24 40 -19 9 1 16 8 16 13 0 14 -48 19 -56 6z"/>
<path d="M80 200 c0 -6 39 -10 96 -10 61 0 93 4 89 10 -3 6 -46 10 -96 10 -53
0 -89 -4 -89 -10z"/>
<path d="M80 160 c0 -6 28 -10 65 -10 37 0 65 4 65 10 0 6 -28 10 -65 10 -37
0 -65 -4 -65 -10z"/>
</g>
</svg>
